<svg width="120" height="120" viewBox="0 0 120 120" xmlns="http://www.w3.org/2000/svg">
<defs><linearGradient id="g" x1="0" x2="1" y1="0" y2="1">
<stop stop-color="#6C63FF" offset="0%"/><stop stop-color="#A1A6FF" offset="100%"/></linearGradient></defs>
<circle cx="60" cy="60" r="56" fill="url(#g)" opacity="0.15"/>
<path d="M60 28c-14 0-26 9-26 22 0 7 4 12 10 15-1 5-3 9-6 12 6-1 11-4 14-7 3 1 5 1 8 1 14 0 26-9 26-21S74 28 60 28z" fill="url(#g)"/>
<circle cx="46" cy="56" r="5" fill="#6C63FF"/><circle cx="60" cy="50" r="5" fill="#6C63FF"/><circle cx="73" cy="57" r="5" fill="#6C63FF"/>
</svg>